# xmcd
#
# Track frame offsets:
#	150
#	7647
#	18817
#	29968
#	42706
#	53642
#	63967
#	74942
#	85417
#	97284
#	111920
#	125052
#
# Disc length: 1770 seconds
#
# Revision: 1
# Processed by: cddbd v1.5.1PL0 Copyright (c) Steve Scherf et al.
# Submitted via: audiograbber 1.83.01
#
DISCID=af06e80c
DTITLE=John Hore - The Town and Country Sound of John Hore U. S. A. 
DYEAR=1900
DGENRE=
TTITLE0=Hai-Ere-Mai (Welcome)
TTITLE1=Take Good Care Of Her
TTITLE2=How Many Heartaches (Does It Take)
TTITLE3=Almost Persuaded
TTITLE4=Big City Slicker
TTITLE5=All Things Come To He Who Waits
TTITLE6=Look Into My Teardrops
TTITLE7=Legend In My Time
TTITLE8=The Shoe Goes On The Other Foot
TTITLE9=I Still Need You
TTITLE10=A Boy, A Song, A Guitar
TTITLE11=Dancing With My Shadow
EXTD=
EXTT0=
EXTT1=
EXTT2=
EXTT3=
EXTT4=
EXTT5=
EXTT6=
EXTT7=
EXTT8=
EXTT9=
EXTT10=
EXTT11=
PLAYORDER=
